<?xml version="1.0" encoding="UTF-8" standalone="no"?>
<!-- Created with Inkscape (http://www.inkscape.org/) -->

<svg
   xmlns:osb="http://www.openswatchbook.org/uri/2009/osb"
   xmlns:dc="http://purl.org/dc/elements/1.1/"
   xmlns:cc="http://creativecommons.org/ns#"
   xmlns:rdf="http://www.w3.org/1999/02/22-rdf-syntax-ns#"
   xmlns:svg="http://www.w3.org/2000/svg"
   xmlns="http://www.w3.org/2000/svg"
   xmlns:sodipodi="http://sodipodi.sourceforge.net/DTD/sodipodi-0.dtd"
   xmlns:inkscape="http://www.inkscape.org/namespaces/inkscape"
   width="1052.3622"
   height="744.09448"
   id="svg2"
   version="1.1"
   inkscape:version="0.48.4 r9939"
   sodipodi:docname="novena.svg"
   inkscape:export-filename="/tech/Art_lessons/novena.png"
   inkscape:export-xdpi="43.209999"
   inkscape:export-ydpi="43.209999">
  <defs
     id="defs4">
    <inkscape:path-effect
       fuse_tolerance="0"
       vertical_pattern="false"
       prop_units="false"
       tang_offset="0"
       normal_offset="0"
       spacing="0"
       scale_y_rel="false"
       prop_scale="3"
       copytype="single_stretched"
       pattern="m 1004.2189,978.84242 0,10 9.9999,-5 z"
       is_visible="true"
       id="path-effect4005"
       effect="skeletal" />
    <inkscape:path-effect
       is_visible="true"
       id="path-effect4003"
       effect="spiro" />
    <inkscape:path-effect
       fuse_tolerance="0"
       vertical_pattern="false"
       prop_units="false"
       tang_offset="0"
       normal_offset="0"
       spacing="0"
       scale_y_rel="false"
       prop_scale="1"
       copytype="single_stretched"
       pattern="m 1004.2189,978.84242 0,10 9.9999,-5 z"
       is_visible="true"
       id="path-effect4001"
       effect="skeletal" />
    <inkscape:path-effect
       is_visible="true"
       id="path-effect3999"
       effect="spiro" />
    <inkscape:path-effect
       effect="skeletal"
       id="path-effect5465"
       is_visible="true"
       pattern="m 322.08316,599.22328 0,10 10,-5 z"
       copytype="single_stretched"
       prop_scale="1"
       scale_y_rel="false"
       spacing="0"
       normal_offset="0"
       tang_offset="0"
       prop_units="false"
       vertical_pattern="false"
       fuse_tolerance="0" />
    <inkscape:path-effect
       effect="spiro"
       id="path-effect5463"
       is_visible="true" />
    <inkscape:path-effect
       effect="skeletal"
       id="path-effect5458"
       is_visible="true"
       pattern="M 0,0 0,10 10,5 z"
       copytype="single_stretched"
       prop_scale="1.5"
       scale_y_rel="false"
       spacing="0"
       normal_offset="0"
       tang_offset="0"
       prop_units="false"
       vertical_pattern="false"
       fuse_tolerance="0" />
    <inkscape:path-effect
       effect="spiro"
       id="path-effect5456"
       is_visible="true" />
    <inkscape:path-effect
       effect="skeletal"
       id="path-effect5452"
       is_visible="true"
       pattern="M 0,5 10,10 10,0 z"
       copytype="single_stretched"
       prop_scale="1"
       scale_y_rel="false"
       spacing="0"
       normal_offset="0"
       tang_offset="0"
       prop_units="false"
       vertical_pattern="false"
       fuse_tolerance="0" />
    <inkscape:path-effect
       effect="spiro"
       id="path-effect5450"
       is_visible="true" />
    <inkscape:path-effect
       effect="skeletal"
       id="path-effect5444"
       is_visible="true"
       pattern="M 0,5 10,10 10,0 z"
       copytype="single_stretched"
       prop_scale="1.5"
       scale_y_rel="false"
       spacing="0"
       normal_offset="0"
       tang_offset="0"
       prop_units="false"
       vertical_pattern="false"
       fuse_tolerance="0" />
    <inkscape:path-effect
       effect="spiro"
       id="path-effect5442"
       is_visible="true" />
    <inkscape:path-effect
       effect="skeletal"
       id="path-effect5438"
       is_visible="true"
       pattern="M 0,5 10,10 10,0 z"
       copytype="single_stretched"
       prop_scale="1.5"
       scale_y_rel="false"
       spacing="0"
       normal_offset="0"
       tang_offset="0"
       prop_units="false"
       vertical_pattern="false"
       fuse_tolerance="0" />
    <inkscape:path-effect
       effect="spiro"
       id="path-effect5436"
       is_visible="true" />
    <inkscape:path-effect
       effect="skeletal"
       id="path-effect5432"
       is_visible="true"
       pattern="M 0,0 0,10 10,5 z"
       copytype="single_stretched"
       prop_scale="1"
       scale_y_rel="false"
       spacing="0"
       normal_offset="0"
       tang_offset="0"
       prop_units="false"
       vertical_pattern="false"
       fuse_tolerance="0" />
    <inkscape:path-effect
       effect="spiro"
       id="path-effect5430"
       is_visible="true" />
    <inkscape:path-effect
       effect="skeletal"
       id="path-effect5425"
       is_visible="true"
       pattern="m 14.015866,-7.7024132 0,9.9999998 10.000001,-4.9999999 z"
       copytype="single_stretched"
       prop_scale="1"
       scale_y_rel="false"
       spacing="0"
       normal_offset="0"
       tang_offset="0"
       prop_units="false"
       vertical_pattern="false"
       fuse_tolerance="0" />
    <inkscape:path-effect
       effect="spiro"
       id="path-effect5423"
       is_visible="true" />
    <inkscape:path-effect
       effect="skeletal"
       id="path-effect5379"
       is_visible="true"
       pattern="m 322.08316,599.22328 0,10 10,-5 z"
       copytype="single_stretched"
       prop_scale="3"
       scale_y_rel="false"
       spacing="0"
       normal_offset="0"
       tang_offset="0"
       prop_units="false"
       vertical_pattern="false"
       fuse_tolerance="0" />
    <inkscape:path-effect
       effect="spiro"
       id="path-effect5377"
       is_visible="true" />
    <linearGradient
       id="linearGradient3755"
       osb:paint="gradient">
      <stop
         style="stop-color:#0000ff;stop-opacity:1;"
         offset="0"
         id="stop3757" />
      <stop
         style="stop-color:#0000ff;stop-opacity:0;"
         offset="1"
         id="stop3759" />
    </linearGradient>
    <clipPath
       id="clipPath5249"
       clipPathUnits="userSpaceOnUse">
      <path
         id="path5251"
         d="M 0,697 1024,697 1024,0 0,0 0,697 z"
         inkscape:connector-curvature="0" />
    </clipPath>
    <clipPath
       id="clipPath5249-2"
       clipPathUnits="userSpaceOnUse">
      <path
         inkscape:connector-curvature="0"
         id="path5251-6"
         d="M 0,697 1024,697 1024,0 0,0 0,697 z" />
    </clipPath>
    <inkscape:path-effect
       effect="spiro"
       id="path-effect5377-4"
       is_visible="true" />
    <inkscape:path-effect
       effect="skeletal"
       id="path-effect5379-9"
       is_visible="true"
       pattern="m -151.96429,-379.83319 0,10 10,-5 z"
       copytype="single_stretched"
       prop_scale="1.5"
       scale_y_rel="false"
       spacing="0"
       normal_offset="0"
       tang_offset="0"
       prop_units="false"
       vertical_pattern="false"
       fuse_tolerance="0" />
    <inkscape:path-effect
       effect="spiro"
       id="path-effect5463-9"
       is_visible="true" />
    <inkscape:path-effect
       effect="skeletal"
       id="path-effect5465-2"
       is_visible="true"
       pattern="m -151.96429,-379.83319 0,10 10,-5 z"
       copytype="single_stretched"
       prop_scale="1"
       scale_y_rel="false"
       spacing="0"
       normal_offset="0"
       tang_offset="0"
       prop_units="false"
       vertical_pattern="false"
       fuse_tolerance="0" />
    <inkscape:path-effect
       is_visible="true"
       id="path-effect3999-6"
       effect="spiro" />
    <inkscape:path-effect
       fuse_tolerance="0"
       vertical_pattern="false"
       prop_units="false"
       tang_offset="0"
       normal_offset="0"
       spacing="0"
       scale_y_rel="false"
       prop_scale="1"
       copytype="single_stretched"
       pattern="m 45.04882,0.92465998 0,10.00000002 10,-5 z"
       is_visible="true"
       id="path-effect4001-4"
       effect="skeletal" />
    <inkscape:path-effect
       is_visible="true"
       id="path-effect4003-4"
       effect="spiro" />
    <inkscape:path-effect
       fuse_tolerance="0"
       vertical_pattern="false"
       prop_units="false"
       tang_offset="0"
       normal_offset="0"
       spacing="0"
       scale_y_rel="false"
       prop_scale="1.5"
       copytype="single_stretched"
       pattern="m 45.04882,0.92465998 0,10.00000002 10,-5 z"
       is_visible="true"
       id="path-effect4005-9"
       effect="skeletal" />
  </defs>
  <sodipodi:namedview
     id="base"
     pagecolor="#ffffff"
     bordercolor="#666666"
     borderopacity="1.0"
     inkscape:pageopacity="0.0"
     inkscape:pageshadow="2"
     inkscape:zoom="0.98994949"
     inkscape:cx="551.32398"
     inkscape:cy="549.15302"
     inkscape:document-units="px"
     inkscape:current-layer="layer7"
     showgrid="false"
     showguides="true"
     inkscape:guide-bbox="true"
     inkscape:window-width="1916"
     inkscape:window-height="1031"
     inkscape:window-x="0"
     inkscape:window-y="0"
     inkscape:window-maximized="0"
     showborder="true"
     inkscape:showpageshadow="false" />
  <metadata
     id="metadata7">
    <rdf:RDF>
      <cc:Work
         rdf:about="">
        <dc:format>image/svg+xml</dc:format>
        <dc:type
           rdf:resource="http://purl.org/dc/dcmitype/StillImage" />
        <dc:title></dc:title>
      </cc:Work>
    </rdf:RDF>
  </metadata>
  <g
     inkscape:label="Layer 1"
     inkscape:groupmode="layer"
     id="layer1"
     style="display:none"
     transform="translate(0,-308.2677)">
    <rect
       style="fill:none;stroke:#000000;stroke-width:1px;stroke-linecap:butt;stroke-linejoin:miter;stroke-opacity:1"
       id="rect2985"
       width="501.03568"
       height="151.52289"
       x="103.54063"
       y="376.57013" />
  </g>
  <g
     inkscape:groupmode="layer"
     id="layer2"
     inkscape:label="gear"
     style="display:inline"
     transform="translate(0,-308.2677)">
    <g
       transform="matrix(1.6049925,0,0,-1.9303985,-297.46537,1341.69)"
       inkscape:label="ohw-logo"
       id="g5243"
       style="fill:#000000;fill-opacity:1">
      <g
         id="g5245"
         style="fill:#000000;fill-opacity:1">
        <g
           clip-path="url(#clipPath5249-2)"
           id="g5247"
           style="fill:#000000;fill-opacity:1">
          <g
             transform="translate(602.2539,351.748)"
             id="g5253"
             style="fill:#000000;fill-opacity:1">
            <path
               id="path5255"
               style="fill:#000000;fill-opacity:1;fill-rule:nonzero;stroke:none"
               d="M 0,0 -2.12,0.395 C -2.661,0.494 -3.546,0.659 -4.087,0.76 l -18.075,3.362 c -0.541,0.101 -1.131,0.608 -1.312,1.128 l -6.795,15.849 c -0.252,0.489 -0.203,1.259 0.108,1.714 l 10.563,15.392 c 0.311,0.454 0.821,1.196 1.131,1.65 l 1.22,1.778 c 0.31,0.453 0.247,1.142 -0.142,1.531 l -1.524,1.524 -1.414,1.414 -4.419,4.419 -1.414,1.414 -4.418,4.419 -1.414,1.415 -1.525,1.524 c -0.388,0.389 -1.078,0.453 -1.531,0.142 l -1.778,-1.22 c -0.453,-0.312 -1.195,-0.82 -1.649,-1.132 l -15.722,-10.79 c -0.453,-0.312 -1.228,-0.367 -1.722,-0.125 l -15.365,6.289 c -0.523,0.173 -1.031,0.757 -1.132,1.297 l -3.505,18.838 c -0.1,0.541 -0.265,1.426 -0.365,1.966 l -0.396,2.12 c -0.1,0.54 -0.632,0.982 -1.182,0.982 l -2.156,0 -2,0 -6.25,0 -2,0 -6.25,0 -2,0 -2.155,0 c -0.55,0 -1.082,-0.442 -1.182,-0.983 l -0.395,-2.119 c -0.101,-0.54 -0.265,-1.425 -0.365,-1.966 l -3.506,-18.838 c -0.101,-0.54 -0.609,-1.124 -1.132,-1.297 l -15.365,-6.289 c -0.494,-0.242 -1.269,-0.187 -1.722,0.125 l -15.722,10.79 c -0.454,0.312 -1.196,0.82 -1.649,1.132 l -1.778,1.22 c -0.453,0.311 -1.143,0.247 -1.531,-0.142 l -1.525,-1.524 -1.414,-1.415 -4.419,-4.42 -1.414,-1.414 -4.418,-4.418 -1.414,-1.414 -1.524,-1.524 c -0.389,-0.389 -0.453,-1.078 -0.142,-1.531 l 1.22,-1.778 c 0.31,-0.454 0.82,-1.196 1.131,-1.65 l 10.563,-15.392 c 0.311,-0.455 0.359,-1.225 0.107,-1.714 L -155.065,5.25 c -0.181,-0.52 -0.771,-1.027 -1.312,-1.128 L -174.452,0.76 c -0.541,-0.101 -1.426,-0.266 -1.967,-0.365 L -178.539,0 c -0.541,-0.102 -0.983,-0.633 -0.983,-1.184 l 0.001,-2.156 0,-2 0,-6.25 0,-2 0,-6.248 0,-2 0,-2.155 c 0,-0.55 0.443,-1.083 0.984,-1.183 l 2.119,-0.394 c 0.541,-0.101 1.426,-0.266 1.967,-0.367 l 17.531,-3.262 c 0.541,-0.1 1.119,-0.612 1.284,-1.137 l 6.748,-16.859 c 0.242,-0.494 0.185,-1.27 -0.127,-1.723 l -9.927,-14.466 c -0.312,-0.453 -0.822,-1.195 -1.132,-1.648 l -1.221,-1.779 c -0.31,-0.453 -0.247,-1.142 0.142,-1.531 l 1.525,-1.524 1.414,-1.414 4.421,-4.42 1.414,-1.414 4.417,-4.417 1.414,-1.414 1.526,-1.525 c 0.388,-0.388 1.078,-0.452 1.531,-0.141 l 1.777,1.219 c 0.453,0.311 1.195,0.821 1.649,1.131 l 14.152,9.712 c 0.453,0.311 1.212,0.337 1.685,0.058 l 2.938,-1.654 c 0.484,-0.259 1.281,-0.677 1.771,-0.927 l 3.043,-1.558 c 0.491,-0.25 1.063,-0.039 1.274,0.469 l 1.306,3.159 c 0.211,0.508 0.555,1.34 0.766,1.848 l 12.277,29.669 c 0.211,0.507 0.555,1.339 0.766,1.847 l 0.869,2.102 c 0.211,0.508 -10e-4,1.158 -0.47,1.445 l -1.94,1.187 c -0.358,0.218 -0.845,0.595 -1.226,0.939 -6.999,4.483 -11.641,12.322 -11.641,21.25 0,13.932 11.294,25.226 25.225,25.226 13.932,0 25.226,-11.294 25.226,-25.226 0,-8.928 -4.643,-16.767 -11.642,-21.25 -0.38,-0.344 -0.867,-0.721 -1.225,-0.939 l -1.939,-1.187 c -0.469,-0.287 -0.681,-0.937 -0.471,-1.445 l 0.87,-2.102 c 0.21,-0.508 0.554,-1.34 0.764,-1.847 l 12.278,-29.669 c 0.211,-0.508 0.555,-1.34 0.765,-1.848 l 1.307,-3.159 c 0.211,-0.508 0.783,-0.719 1.274,-0.469 l 3.042,1.558 c 0.491,0.25 1.288,0.668 1.772,0.927 l 2.937,1.654 c 0.474,0.279 1.233,0.253 1.686,-0.058 l 14.152,-9.712 c 0.453,-0.31 1.196,-0.82 1.649,-1.131 l 1.778,-1.219 c 0.453,-0.311 1.143,-0.247 1.531,0.141 l 1.524,1.525 1.414,1.414 4.418,4.418 1.414,1.414 4.421,4.419 1.414,1.414 1.525,1.524 c 0.389,0.389 0.452,1.078 0.141,1.531 l -1.22,1.779 c -0.311,0.453 -0.821,1.195 -1.132,1.648 l -9.928,14.466 c -0.311,0.453 -0.368,1.229 -0.126,1.723 l 6.748,16.859 c 0.165,0.525 0.743,1.037 1.284,1.137 l 17.532,3.262 c 0.541,0.101 1.426,0.266 1.967,0.367 l 2.118,0.394 c 0.541,0.1 0.983,0.633 0.983,1.183 l 0,2.155 0,2 0,6.248 0,2 0.001,6.25 0,2 0.001,2.156 C 0.983,-0.633 0.541,-0.102 0,0"
               inkscape:connector-curvature="0" />
          </g>
          <g
             transform="translate(575.0156,351.7285)"
             id="g5257"
             style="fill:#000000;fill-opacity:1">
            <path
               id="path5259"
               style="fill:#000000;fill-opacity:1;fill-rule:nonzero;stroke:none"
               d="M 0,0 C -1.75,8.039 -5.013,15.512 -9.491,22.096 L 4.083,41.879 -1.75,47.711 -7.583,53.546 -27.627,39.789 c -6.511,4.207 -13.831,7.268 -21.687,8.865 l 0.002,10e-4 -4.469,24.025 -8.25,0 -8.25,0 -4.47,-24.025 0.003,-10e-4 c -7.856,-1.597 -15.177,-4.658 -21.688,-8.865 l -20.043,13.757 -5.834,-5.835 -5.833,-5.832 13.575,-19.783 C -119.05,15.512 -122.313,8.039 -124.063,0 l -23.22,-4.319 10e-4,-8.251 0,-8.248 22.791,-4.242 c 1.538,-8.418 4.74,-16.252 9.247,-23.158 l -12.903,-18.8 5.834,-5.834 5.833,-5.832 18.553,12.732 c 2.246,-1.541 4.592,-2.946 7.032,-4.194 l 13.043,31.516 c -8.728,5.336 -14.554,14.954 -14.554,25.935 0,16.775 13.6,30.375 30.375,30.375 16.774,0 30.375,-13.6 30.375,-30.375 0,-10.981 -5.826,-20.599 -14.555,-25.935 l 13.043,-31.516 c 2.44,1.248 4.786,2.653 7.032,4.194 l 18.554,-12.732 5.832,5.832 5.835,5.834 -12.903,18.8 c 4.506,6.906 7.709,14.74 9.247,23.158 l 22.791,4.242 0,8.248 0.001,8.251 L 0,0 z"
               inkscape:connector-curvature="0" />
          </g>
        </g>
      </g>
    </g>
  </g>
  <g
     inkscape:groupmode="layer"
     id="layer3"
     inkscape:label="pads"
     style="display:inline"
     transform="translate(0,-308.2677)">
    <rect
       style="fill:#000000;fill-opacity:1"
       id="rect5313"
       width="92.587654"
       height="46.293827"
       x="6.3134537"
       y="517.0166" />
    <rect
       y="581.45953"
       x="6.3134537"
       height="46.293827"
       width="92.587654"
       id="rect5336"
       style="fill:#000000;fill-opacity:1" />
    <rect
       style="fill:#000000;fill-opacity:1"
       id="rect5338"
       width="92.587654"
       height="46.293827"
       x="6.3134537"
       y="645.90265" />
    <rect
       y="710.34601"
       x="6.3134537"
       height="46.293827"
       width="92.587654"
       id="rect5340"
       style="fill:#000000;fill-opacity:1" />
    <rect
       style="fill:#000000;fill-opacity:1"
       id="rect5342"
       width="92.587654"
       height="46.293827"
       x="6.3134537"
       y="774.78894" />
  </g>
  <g
     inkscape:groupmode="layer"
     id="layer6"
     inkscape:label="pads2"
     style="display:inline"
     transform="translate(0,-308.2677)">
    <rect
       y="534.94788"
       x="45.722855"
       height="9.9952621"
       width="86.800919"
       id="rect5336-0"
       style="fill:#000000;fill-opacity:1;display:inline" />
    <rect
       style="fill:#000000;fill-opacity:1;display:inline"
       id="rect5407"
       width="86.800919"
       height="9.9952621"
       x="45.722855"
       y="598.86487" />
    <rect
       y="662.78192"
       x="45.722855"
       height="9.9952621"
       width="86.800919"
       id="rect5409"
       style="fill:#000000;fill-opacity:1;display:inline" />
    <rect
       style="fill:#000000;fill-opacity:1;display:inline"
       id="rect5411"
       width="86.800919"
       height="9.9952621"
       x="45.722855"
       y="726.69891" />
    <rect
       y="790.61615"
       x="45.722855"
       height="9.9952621"
       width="86.800919"
       id="rect5413"
       style="fill:#000000;fill-opacity:1;display:inline" />
  </g>
  <g
     inkscape:groupmode="layer"
     id="layer4"
     inkscape:label="flourish1"
     style="display:inline"
     transform="translate(0,-308.2677)">
    <path
       style="fill:#000000;fill-rule:evenodd;stroke:none"
       d="m 327.86363,553.37454 -4.19452,-20.40449 c -7.10407,1.89174 -14.68567,2.45924 -22.14677,1.60512 -8.47722,-0.88741 -17.31034,-3.95765 -26.59991,-7.1038 l 0,0 c -9.25456,-3.23097 -19.13432,-6.58512 -29.73344,-7.95475 -15.14983,-1.76875 -29.71473,0.81727 -43.46094,4.1274 -6.93903,1.636 -13.963,3.49282 -20.77288,6.12074 -4.44928,1.72186 -8.56954,3.69263 -12.74819,5.1344 -8.14687,2.84912 -17.0823,3.85253 -26.03055,4.74202 l 0,0 c -4.32509,0.42165 -6.93952,0.4065 -11.21625,0.11478 0,0 -2.04591,0.279 -2.04593,0.279 -2.88543,-0.19519 -5.45445,-0.57484 -8.41141,-0.5579 -1.22429,0.008 -2.44345,0.1079 -3.64375,0.29874 1.21315,-0.0733 2.4274,-0.0544 3.62879,0.0554 2.90201,0.26409 5.71851,1.05768 8.65733,1.54559 l 0,2e-5 c 4.35627,0.72088 8.79739,0.74931 13.15387,0.74106 9.01533,-2e-5 18.20906,-0.14498 27.33296,-2.31598 4.66964,-1.1302 9.07545,-2.72168 13.3663,-3.91828 6.56312,-1.83754 13.36964,-2.92478 20.29034,-3.87451 13.71673,-1.81348 27.40341,-2.97794 39.79803,-0.081 8.70636,1.90043 17.17837,5.86118 26.10892,9.88951 l 0,0 c 8.89753,4.11395 18.4087,8.37742 29.23228,10.80025 9.58592,2.06958 19.59812,2.34776 29.43572,0.75684 z"
       id="path5421"
       inkscape:connector-curvature="0"
       sodipodi:nodetypes="cccccccccccccccccccccccccccc" />
    <path
       style="fill:#000000;fill-rule:evenodd;stroke:none"
       d="m 118.56862,733.26647 c 2.2375,-0.0233 3.54505,-0.0469 5.78255,-0.0702 12.02103,-0.1229 24.90708,1.32882 36.21347,4.37069 17.85272,4.71012 33.29085,14.60354 48.48552,25.82399 6.90417,5.14426 13.79748,10.32916 20.74706,15.47949 l 0,0 c 9.1618,6.80036 18.5719,13.61756 28.86316,19.54905 8.56862,4.91565 17.48882,9.06434 26.48221,12.74458 14.95348,6.13086 30.39799,11.13984 46.13812,15.06033 11.77881,2.95356 23.99827,5.30592 36.6923,6.26072 17.39312,1.12748 35.1206,-0.47497 52.38836,-4.81379 9.20933,-3.95563 18.4527,-7.92438 27.73015,-11.90628 l -13.65183,-28.10669 c -8.08186,4.44976 -16.19776,8.91267 -24.34775,13.38871 -13.09263,4.52673 -27.13233,6.95819 -41.35185,7.08971 -10.8228,0.2139 -21.96268,-0.934 -33.2409,-2.66693 l 0,0 c -15.06514,-2.34088 -30.00039,-5.72438 -44.6262,-10.23466 -8.79116,-2.71773 -17.3861,-5.78866 -25.59568,-9.5745 -9.88249,-4.53098 -19.48117,-10.26424 -29.1665,-16.16152 l -2e-5,0 c -7.33992,-4.47678 -14.66872,-9.01866 -22.0312,-13.53536 -16.13469,-9.99485 -33.39214,-20.11738 -52.50841,-23.46398 -12.17036,-2.07446 -24.7258,-1.67506 -36.69557,-0.46508 -2.22633,0.2246 -4.08066,1.00719 -6.30699,1.23179 z"
       id="path5440"
       inkscape:connector-curvature="0"
       sodipodi:nodetypes="cccccccccccccccccccccccccc" />
    <path
       style="fill:#000000;fill-rule:evenodd;stroke:none"
       d="m 384.045,702.36614 2.65718,-31.13354 c -9.22173,-0.52203 -18.4456,-0.96667 -27.67034,-1.33395 -21.44024,-0.95334 -41.89405,-1.22102 -60.54706,-6.10174 l 0,0 c -9.40004,-2.39825 -18.49938,-5.85699 -26.88165,-10.50559 l -2e-5,0 c -8.81585,-5.205 -16.8377,-11.01124 -20.36708,-18.54729 -2.7383,-5.41227 -3.844,-11.98288 -2.26318,-17.4852 1.37802,-5.75404 5.91554,-11.24203 11.54685,-14.67128 0,0 0,0 2e-5,0 6.8807,-4.22443 16.20694,-5.29188 24.65637,-3.26234 7.03178,1.76114 13.72132,5.66797 18.24224,11.21899 4.60977,5.5042 7.28499,12.97446 7.58369,20.50986 0.41691,8.7765 -2.63735,17.96029 -7.5494,26.0662 -8.55051,14.09767 -23.24339,24.58872 -39.46511,30.61734 -2e-5,0 -2e-5,2e-5 -2e-5,2e-5 -8.35517,3.07493 -17.17873,5.02323 -26.14042,5.83973 l -2e-5,0 c -16.14252,1.48328 -32.72319,-0.77996 -48.46063,-5.78875 -2e-5,-2e-5 -2e-5,-2e-5 -4e-5,-2e-5 -9.30922,-2.97026 -18.07891,-7.81521 -26.6433,-12.623 -8.12889,-4.25987 -17.93838,-6.29266 -26.89611,-7.82204 -7.54705,-1.28749 -14.44597,-1.56658 -22.00925,-0.84285 7.59244,-0.28611 14.14121,1.3589 21.48786,3.05362 8.71409,2.00908 18.11951,4.46508 25.71053,9.01987 8.43208,5.39606 17.43339,9.94651 26.82714,13.54876 l 0,0 c 15.91631,6.11482 33.09294,9.49732 50.43973,8.94108 2e-5,0 2e-5,0 4e-5,0 9.62787,-0.31561 19.26014,-1.85893 28.5705,-4.68159 18.20295,-5.46397 35.37018,-16.3174 46.80974,-32.51059 6.61347,-9.35867 11.02472,-20.70492 11.38895,-32.85319 0.25323,-10.52313 -2.8664,-21.17017 -9.25043,-29.9925 -6.43986,-8.73248 -15.65994,-15.08207 -25.94731,-18.24072 -12.40174,-3.89357 -26.31313,-3.08688 -38.47159,3.05045 l -2e-5,2e-5 c -10.05086,5.10556 -18.20572,14.01238 -22.12133,25.30974 -3.54209,10.99916 -2.67518,22.79643 1.94533,33.01716 6.33203,13.41347 16.95486,23.20516 28.03104,29.85078 l 2e-5,2e-5 c 10.02499,6.31746 20.84836,11.21406 32.03765,14.74558 2e-5,0 2e-5,0 5e-5,0 22.22986,6.89364 44.70395,8.77786 65.70885,10.73238 9.02351,0.88289 18.03745,1.84116 27.04053,2.87458 z"
       id="path5454"
       inkscape:connector-curvature="0"
       sodipodi:nodetypes="ccccccccccccccccccccccccccccccccccccccccccccc" />
    <path
       style="fill:#000000;fill-rule:evenodd;stroke:none"
       d="m 346.55598,693.21935 -1.05616,-9.94406 c -6.38157,0.80158 -12.74737,1.71177 -19.09374,2.7299 -14.21428,2.27053 -28.50084,5.13843 -42.3472,9.74215 -8.17128,2.72172 -16.1463,6.05142 -23.78482,10.03598 0,0 0,0 -1e-5,0 -7.79153,4.07112 -15.12833,8.75485 -22.34122,13.46763 -10.30304,6.7193 -20.62415,13.67265 -30.00034,21.86665 -5.24676,4.59267 -10.12533,9.51313 -14.91629,14.45914 -5.94703,6.13745 -11.8034,12.35139 -17.62981,18.5866 0,0 -1e-5,0 -1e-5,1e-5 -4.61759,4.93044 -9.19191,9.86745 -14.65289,13.63402 -8.09886,5.60854 -18.03536,8.50795 -28.01992,8.86082 -4.15072,0.14607 -8.32472,-0.13295 -12.43504,-0.83458 4.08016,0.85982 8.25642,1.30321 12.44266,1.31766 10.07285,0.0362 20.29958,-2.49848 28.92138,-7.97234 5.79515,-3.69395 10.6944,-8.55746 15.48547,-13.31396 0,0 0,0 0,0 6.058,-6.00069 12.13847,-11.97265 18.29534,-17.85401 4.96157,-4.73797 9.95431,-9.40235 15.22203,-13.6605 9.40089,-7.61206 19.77313,-14.01261 30.27644,-20.31275 7.36126,-4.40689 14.71026,-8.71573 22.30822,-12.30867 0,0 10e-6,0 10e-6,0 7.44291,-3.52607 15.18655,-6.40862 23.09704,-8.71044 13.40147,-3.90781 27.31752,-6.12199 41.37056,-7.83255 6.27644,-0.75963 12.56378,-1.41195 18.8583,-1.9567 z"
       id="path5461"
       inkscape:path-effect="#path-effect5463;#path-effect5465"
       inkscape:original-d="m 346.0279,688.24732 c 0,0 -15.62732,2.3433 -18.97602,2.3433 -3.34869,0 -26.78966,3.51496 -41.85888,8.78735 -15.06915,5.27243 -15.62728,4.68664 -23.44093,9.37321 -7.81364,4.68661 -5.58118,0.58583 -22.32473,12.88815 -16.74356,12.30232 -21.20851,13.47399 -30.13839,21.0897 -8.92986,7.61574 -7.81367,5.27247 -15.06916,14.05982 -7.25556,8.78738 -9.03268,11.1904 -17.96258,18.22031 -8.92988,7.02991 -4.46493,6.4441 -15.06918,13.47399 -10.60427,7.02989 -19.54075,6.65909 -28.47065,8.41658 -8.92986,1.75748 -12.43885,-1.07612 -12.43885,-1.07612"
       inkscape:connector-curvature="0"
       sodipodi:nodetypes="csssssssssc" />
    <path
       style="fill:#000000;fill-rule:evenodd;stroke:none"
       d="m 420.80497,582.91737 19.34612,-22.92876 c -8.35442,-6.46084 -16.69707,-12.91242 -25.02796,-19.35474 -4.25008,-2.92325 -8.82108,-5.29844 -13.59839,-7.07987 -1e-5,0 -2e-5,0 -3e-5,0 -12.0147,-4.07504 -23.49465,-4.52819 -33.67136,-4.14332 -5.49494,0.11687 -10.9848,0.34413 -16.46487,0.68372 -9.34526,0.55909 -18.97476,1.50853 -28.6319,3.54103 -5.81464,1.24383 -11.41558,2.8479 -16.83748,4.62995 -1e-5,10e-6 -1e-5,10e-6 -1e-5,10e-6 -3.84525,1.26139 -7.56679,2.59044 -11.21019,3.88199 -3.79048,1.33978 -7.74219,2.71959 -11.75488,4.33997 -3.31541,1.34487 -6.5161,2.80276 -9.62904,4.31068 -10e-6,0 -10e-6,10e-6 -2e-5,10e-6 -4.20176,2.0428 -8.3329,4.19723 -12.38716,6.4593 0,0 -10e-6,0 -10e-6,10e-6 -2.37136,1.65731 -4.8206,3.20491 -7.33625,4.63411 -4.68618,2.67704 -9.90487,4.99559 -15.27129,7.55467 -9.10041,4.3303 -17.79782,8.96917 -26.60529,13.0475 -1e-5,0 -1e-5,0 -2e-5,0 -5.87397,2.72014 -11.82925,5.21517 -17.90281,7.34411 -8.47841,2.98027 -17.35494,5.28248 -26.2624,7.77762 -6.12363,1.70791 -12.10495,3.48157 -18.1802,4.46857 0,0 -10e-6,10e-6 -10e-6,10e-6 -6.61623,1.09065 -13.5181,1.25929 -20.43881,1.79972 0,0 -1e-5,0 -1e-5,0 -4.30354,0.33523 -8.57527,0.81214 -12.83784,1.29443 -4.31959,0.48928 -8.645,0.98475 -12.97622,1.48643 -0.98888,0.0423 -1.9793,0.0847 -2.97126,0.12705 0.99196,0.0424 1.98546,0.0847 2.9805,0.12705 4.34757,-0.13029 8.70182,-0.25478 13.06272,-0.37349 4.28694,-0.11652 8.56746,-0.22689 12.82907,-0.19351 1e-5,0 1e-5,0 2e-5,0 6.85349,0.055 13.78123,0.47471 20.85155,-0.0602 6.4888,-0.50523 12.82373,-1.79043 19.01829,-2.97116 9.01474,-1.70765 18.16104,-3.26709 27.30342,-5.6138 6.54605,-1.68612 12.97788,-3.75049 19.29566,-6.04736 1e-5,0 1e-5,-10e-6 1e-5,-10e-6 9.4722,-3.4439 18.61467,-7.35389 27.70453,-10.75952 5.36439,-2.0045 11.01125,-3.97252 16.71941,-6.58077 2.83306,-1.29049 5.59987,-2.7235 8.28713,-4.29355 10e-6,0 10e-6,0 10e-6,0 3.77135,-1.68679 7.58032,-3.25429 11.41984,-4.70023 0,0 10e-6,0 10e-6,-10e-6 3.01378,-1.15017 6.00044,-2.21575 8.97019,-3.12898 3.59012,-1.11111 7.37498,-2.07124 11.30816,-3.09975 3.78279,-0.98553 7.47991,-1.96119 11.10893,-2.81372 0,0 10e-6,0 10e-6,0 5.11788,-1.19889 10.1731,-2.19717 15.15322,-2.80973 8.26147,-1.049 16.84527,-1.11158 25.67788,-0.92279 5.18202,0.12239 10.35865,0.35132 15.52583,0.68372 10e-6,0 10e-6,0 2e-5,0 9.50039,0.78262 18.10184,1.54409 24.35824,4.78427 10e-6,0 10e-6,0 10e-6,1e-5 2.35248,1.07313 4.54854,2.45743 6.48881,4.07973 7.54047,6.94913 15.06918,13.889 22.58612,20.8196 z"
       id="path5375"
       inkscape:path-effect="#path-effect5377;#path-effect5379"
       inkscape:original-d="m 430.47803,571.45299 -23.80704,-20.08717 c 0,0 -0.74396,-2.23192 -10.0436,-5.5798 -9.29961,-3.34786 -17.48328,-4.4638 -29.01482,-4.4638 -11.53153,0 1.48795,-1.11597 -15.99536,0 -17.4833,1.11594 -20.08719,1.11594 -27.15489,2.23191 -7.06772,1.11595 -10.41558,2.23189 -15.99535,3.71984 -5.57979,1.48795 -5.20779,1.48795 -11.15957,3.34786 -5.95175,1.85993 -7.4397,1.85993 -11.53152,3.71986 -4.09184,1.85991 -3.71986,2.23191 -9.29963,3.71984 -5.57978,1.48795 -11.90351,5.57977 -11.90351,5.57977 0,0 0.37198,0 -7.81169,4.46383 -8.18366,4.46383 0.74397,0.37198 -15.99535,7.06772 -16.73933,6.69572 -20.83116,9.6716 -27.15491,11.90351 -6.32374,2.23191 -0.74397,2.97588 -18.59925,6.69574 -17.85528,3.71984 -22.69109,5.95175 -26.78291,6.69571 -4.09185,0.74399 -10.78756,1.85994 -18.59925,3.71987 -7.81168,1.85993 -15.06538,0.92996 -20.64518,0.92996 -5.57977,0 -5.39377,0.74397 -12.83347,0.74397 -7.4397,0 -13.01947,0.92996 -13.01947,0.92996 l -2.97588,0"
       inkscape:connector-curvature="0"
       sodipodi:nodetypes="ccsssssssscsssssssscc" />
  </g>
  <g
     inkscape:groupmode="layer"
     id="layer5"
     inkscape:label="traces"
     transform="translate(0,-308.2677)">
    <path
       style="fill:none;stroke:#000000;stroke-width:2.08311582;stroke-linecap:butt;stroke-linejoin:miter;stroke-miterlimit:4;stroke-opacity:1;stroke-dasharray:none"
       d="m 253.91264,533.49299 -36.74639,21.21554 -10.64783,6.14752 -64.20127,0"
       id="path5597"
       inkscape:connector-curvature="0" />
    <path
       style="fill:none;stroke:#000000;stroke-width:2.08311582px;stroke-linecap:butt;stroke-linejoin:miter;stroke-opacity:1"
       d="m 401.38919,565.94069 -30.04614,8.05083 -10.57983,18.32481 -0.93328,34.12196"
       id="path5601"
       inkscape:connector-curvature="0" />
    <path
       style="fill:none;stroke:#000000;stroke-width:2.08311582px;stroke-linecap:butt;stroke-linejoin:miter;stroke-opacity:1"
       d="m 370.87733,573.56864 -43.13741,0"
       id="path5607"
       inkscape:connector-curvature="0" />
    <path
       style="fill:none;stroke:#000000;stroke-width:2.08311582px;stroke-linecap:butt;stroke-linejoin:miter;stroke-opacity:1"
       d="m 346.94133,573.04257 -9.07464,-9.07463 -18.54383,0"
       id="path5609"
       inkscape:connector-curvature="0" />
    <path
       style="fill:none;stroke:#000000;stroke-width:2.08311582px;stroke-linecap:butt;stroke-linejoin:miter;stroke-opacity:1"
       d="m 360.35601,594.87432 -11.04739,11.0474 0,12.36255"
       id="path5611"
       inkscape:connector-curvature="0" />
    <path
       style="fill:none;stroke:#000000;stroke-width:2.08311582px;stroke-linecap:butt;stroke-linejoin:miter;stroke-opacity:1"
       d="m 360.61905,610.91935 14.50298,8.37329 29.94961,0"
       id="path5615"
       inkscape:connector-curvature="0" />
    <path
       style="fill:none;stroke:#000000;stroke-width:2.08311582px;stroke-linecap:butt;stroke-linejoin:miter;stroke-opacity:1"
       d="m 364.56455,671.94302 0,-15.78198 -14.46682,-14.46682"
       id="path5617"
       inkscape:connector-curvature="0" />
    <path
       style="fill:none;stroke:#000000;stroke-width:2.08311582px;stroke-linecap:butt;stroke-linejoin:miter;stroke-opacity:1"
       d="m 150.98166,632.75109 52.60663,0 34.04322,9.12186"
       id="path5619"
       inkscape:connector-curvature="0" />
    <path
       style="fill:none;stroke:#000000;stroke-width:2.08311582px;stroke-linecap:butt;stroke-linejoin:miter;stroke-opacity:1"
       d="m 176.49587,621.96674 32.09005,0 20.85194,5.58725"
       id="path5621"
       inkscape:connector-curvature="0" />
    <path
       style="fill:none;stroke:#000000;stroke-width:2.08311582px;stroke-linecap:butt;stroke-linejoin:miter;stroke-opacity:1"
       d="m 347.20436,756.37665 14.46683,-14.46683 -0.78911,-46.03078"
       id="path5623"
       inkscape:connector-curvature="0" />
    <path
       style="fill:none;stroke:#000000;stroke-width:2.08311582px;stroke-linecap:butt;stroke-linejoin:miter;stroke-opacity:1"
       d="m 327.21385,746.3814 -15.42014,-8.90282 0,-41.07347"
       id="path5625"
       inkscape:connector-curvature="0" />
    <path
       style="fill:none;stroke:#000000;stroke-width:2.08311582px;stroke-linecap:butt;stroke-linejoin:miter;stroke-opacity:1"
       d="m 326.68778,766.89798 0,25.25118 17.62322,17.6232"
       id="path5627"
       inkscape:connector-curvature="0" />
    <path
       style="fill:none;stroke:#000000;stroke-width:2.08311582px;stroke-linecap:butt;stroke-linejoin:miter;stroke-opacity:1"
       d="m 301.4366,702.19182 0,42.08532 -14.20379,14.20379 0,38.40282"
       id="path5629"
       inkscape:connector-curvature="0" />
    <path
       style="fill:none;stroke:#000000;stroke-width:2.08311582px;stroke-linecap:butt;stroke-linejoin:miter;stroke-opacity:1"
       d="m 277.23756,792.67521 0,-38.92889 13.67772,-13.67772 0,-36.82464"
       id="path5631"
       inkscape:connector-curvature="0" />
    <path
       style="fill:none;stroke:#000000;stroke-width:2.08311582px;stroke-linecap:butt;stroke-linejoin:miter;stroke-opacity:1"
       d="m 277.23756,766.37191 -22.62085,0 -10.86613,-18.8207"
       id="path5633"
       inkscape:connector-curvature="0" />
    <path
       style="fill:none;stroke:#000000;stroke-width:2.08311582px;stroke-linecap:butt;stroke-linejoin:miter;stroke-opacity:1"
       d="m 242.51719,785.83636 -46.29384,0 -19.72748,19.72748 -20.7796,0"
       id="path5635"
       inkscape:connector-curvature="0" />
    <path
       style="fill:none;stroke:#000000;stroke-width:2.08311582px;stroke-linecap:butt;stroke-linejoin:miter;stroke-opacity:1"
       d="m 267.76836,801.09227 -35.24644,-1.57819 -13.15165,13.15165 -16.30805,0 0,-2.10426"
       id="path5637"
       inkscape:connector-curvature="0" />
    <path
       style="fill:none;stroke:#000000;stroke-width:2.08311582px;stroke-linecap:butt;stroke-linejoin:miter;stroke-opacity:1"
       d="m 239.88686,695.35297 -11.84779,-20.52096 -38.65457,0 1.05212,-2.09988"
       id="path5639"
       inkscape:connector-curvature="0" />
    <path
       style="fill:none;stroke:#000000;stroke-width:2.08311582px;stroke-linecap:butt;stroke-linejoin:miter;stroke-opacity:1"
       d="m 213.05747,673.78427 -5.45068,-9.44087 -16.53459,-9.54626 -31.14741,0"
       id="path5641"
       inkscape:connector-curvature="0" />
    <path
       style="fill:none;stroke:#000000;stroke-width:2.24257612px;stroke-linecap:butt;stroke-linejoin:miter;stroke-opacity:1"
       d="m 176.41615,654.92561 -10.63435,10.88793 -17.35075,0"
       id="path5643"
       inkscape:connector-curvature="0" />
    <path
       style="fill:none;stroke:#000000;stroke-width:2.08311582px;stroke-linecap:butt;stroke-linejoin:miter;stroke-opacity:1"
       d="m 308.59443,597.4744 26.03895,0 6.63254,3.82931"
       id="path5645"
       inkscape:connector-curvature="0" />
    <path
       style="fill:none;stroke:#000000;stroke-width:2.17487669px;stroke-linecap:butt;stroke-linejoin:miter;stroke-opacity:1"
       d="m 284.91966,598.3055 13.21333,13.19591 0,19.40577 -0.77726,-0.77623"
       id="path5647"
       inkscape:connector-curvature="0" />
    <path
       style="fill:none;stroke:#000000;stroke-width:2.08311582px;stroke-linecap:butt;stroke-linejoin:miter;stroke-opacity:1"
       d="m 263.95624,653.27216 0,-19.34323 5.35371,-9.27291"
       id="path5649"
       inkscape:connector-curvature="0" />
    <path
       style="fill:none;stroke:#000000;stroke-width:2.08311582px;stroke-linecap:butt;stroke-linejoin:miter;stroke-opacity:1"
       d="m 278.09166,656.992 0,-16.36734 4.52344,-7.8348"
       id="path5651"
       inkscape:connector-curvature="0" />
    <path
       sodipodi:type="arc"
       id="path5657"
       style="fill:#000000;stroke:none"
       sodipodi:cx="171.47339"
       sodipodi:cy="400.18243"
       sodipodi:rx="1.5"
       sodipodi:ry="1.5"
       d="m 172.97339,400.18243 a 1.5,1.5 0 1 1 -3,0 1.5,1.5 0 1 1 3,0 z"
       transform="matrix(2.0831159,0,0,2.0831159,-215.16042,-272.68336)" />
    <path
       sodipodi:type="arc"
       id="path5659"
       style="fill:#000000;stroke:none"
       sodipodi:cx="188.01463"
       sodipodi:cy="429.35059"
       sodipodi:rx="1.5"
       sodipodi:ry="1.5"
       d="m 189.51463,429.35059 a 1.5,1.5 0 1 1 -3,0 1.5,1.5 0 1 1 3,0 z"
       transform="matrix(2.0831159,0,0,2.0831159,-215.16042,-272.68336)" />
    <path
       sodipodi:type="arc"
       id="path5661"
       style="fill:#000000;stroke:none"
       sodipodi:cx="179.80714"
       sodipodi:cy="445.2605"
       sodipodi:rx="1.5"
       sodipodi:ry="1.5"
       d="m 181.30714,445.2605 a 1.5,1.5 0 1 1 -3,0 1.5,1.5 0 1 1 3,0 z"
       transform="matrix(2.0831159,0,0,2.0831159,-215.16042,-272.68336)" />
    <path
       sodipodi:type="arc"
       id="path5663"
       style="fill:#000000;stroke:none"
       sodipodi:cx="193.9493"
       sodipodi:cy="454.73068"
       sodipodi:rx="1.5"
       sodipodi:ry="1.5"
       d="m 195.4493,454.73068 a 1.5,1.5 0 1 1 -3,0 1.5,1.5 0 1 1 3,0 z"
       transform="matrix(2.0831159,0,0,2.0831159,-215.16042,-272.68336)" />
    <path
       sodipodi:type="arc"
       id="path5665"
       style="fill:#000000;stroke:none"
       sodipodi:cx="260.61935"
       sodipodi:cy="489.3284"
       sodipodi:rx="1.5"
       sodipodi:ry="1.5"
       d="m 262.11935,489.3284 a 1.5,1.5 0 1 1 -3,0 1.5,1.5 0 1 1 3,0 z"
       transform="matrix(2.0831159,0,0,2.0831159,-215.16042,-272.68336)" />
    <path
       sodipodi:type="arc"
       id="path5667"
       style="fill:#000000;stroke:none"
       sodipodi:cx="260.61935"
       sodipodi:cy="489.3284"
       sodipodi:rx="1.5"
       sodipodi:ry="1.5"
       d="m 262.11935,489.3284 a 1.5,1.5 0 1 1 -3,0 1.5,1.5 0 1 1 3,0 z"
       transform="matrix(2.0831159,0,0,2.0831159,-215.16042,-272.68336)" />
    <path
       sodipodi:type="arc"
       id="path5669"
       style="fill:#000000;stroke:none"
       sodipodi:cx="260.61935"
       sodipodi:cy="489.3284"
       sodipodi:rx="1.5"
       sodipodi:ry="1.5"
       d="m 262.11935,489.3284 a 1.5,1.5 0 1 1 -3,0 1.5,1.5 0 1 1 3,0 z"
       transform="matrix(2.0831159,0,0,2.0831159,-215.16042,-272.68336)" />
    <path
       sodipodi:type="arc"
       id="path5671"
       style="fill:#000000;stroke:none"
       sodipodi:cx="260.11429"
       sodipodi:cy="498.54605"
       sodipodi:rx="1.5"
       sodipodi:ry="1.5"
       d="m 261.61429,498.54605 a 1.5,1.5 0 1 1 -3,0 1.5,1.5 0 1 1 3,0 z"
       transform="matrix(2.0831159,0,0,2.0831159,-215.16042,-272.68336)" />
    <path
       sodipodi:type="arc"
       id="path5673"
       style="fill:#000000;stroke:none"
       sodipodi:cx="269.45819"
       sodipodi:cy="493.74783"
       sodipodi:rx="1.5"
       sodipodi:ry="1.5"
       d="m 270.95819,493.74783 a 1.5,1.5 0 1 1 -3,0 1.5,1.5 0 1 1 3,0 z"
       transform="matrix(2.0831159,0,0,2.0831159,-214.89738,-272.55185)" />
    <path
       sodipodi:type="arc"
       id="path5675"
       style="fill:#000000;stroke:none"
       sodipodi:cx="276.07144"
       sodipodi:cy="430.57648"
       sodipodi:rx="1.5"
       sodipodi:ry="1.5"
       d="m 277.57144,430.57648 a 1.5,1.5 0 1 1 -3,0 1.5,1.5 0 1 1 3,0 z"
       transform="matrix(2.0831159,0,0,2.0831159,-215.16042,-272.68336)" />
    <path
       sodipodi:type="arc"
       id="path5677"
       style="fill:#000000;stroke:none"
       sodipodi:cx="271.07144"
       sodipodi:cy="427.71933"
       sodipodi:rx="1.5"
       sodipodi:ry="1.5"
       d="m 272.57144,427.71933 a 1.5,1.5 0 1 1 -3,0 1.5,1.5 0 1 1 3,0 z"
       transform="matrix(2.0831159,0,0,2.0831159,-215.16042,-272.68336)" />
    <path
       sodipodi:type="arc"
       id="path5679"
       style="fill:#000000;stroke:none"
       sodipodi:cx="260.44644"
       sodipodi:cy="406.20148"
       sodipodi:rx="1.5"
       sodipodi:ry="1.5"
       d="m 261.94644,406.20148 a 1.5,1.5 0 1 1 -3,0 1.5,1.5 0 1 1 3,0 z"
       transform="matrix(2.0831159,0,0,2.0831159,-215.16042,-272.68336)" />
    <path
       sodipodi:type="arc"
       id="path5683"
       style="fill:#000000;stroke:none"
       sodipodi:cx="246.33929"
       sodipodi:cy="434.05862"
       sodipodi:rx="1.5"
       sodipodi:ry="1.5"
       d="m 247.83929,434.05862 a 1.5,1.5 0 1 1 -3,0 1.5,1.5 0 1 1 3,0 z"
       transform="matrix(2.0831159,0,0,2.0831159,-215.16042,-272.68336)" />
    <path
       sodipodi:type="arc"
       id="path5685"
       style="fill:#000000;stroke:none"
       sodipodi:cx="200.53571"
       sodipodi:cy="520.8443"
       sodipodi:rx="1.5"
       sodipodi:ry="1.5"
       d="m 202.03571,520.8443 a 1.5,1.5 0 1 1 -3,0 1.5,1.5 0 1 1 3,0 z"
       transform="matrix(2.0831159,0,0,2.0831159,-215.16042,-272.68336)" />
    <path
       style="fill:none;stroke:#000000;stroke-width:2.01552844px;stroke-linecap:butt;stroke-linejoin:miter;stroke-opacity:1"
       d="m 191.77984,560.55027 -18.73232,17.98669 -37.83186,0"
       id="path5687"
       inkscape:connector-curvature="0" />
    <path
       style="fill:none;stroke:#000000;stroke-width:2.08311582px;stroke-linecap:butt;stroke-linejoin:miter;stroke-opacity:1"
       d="m 205.92659,523.82138 -38.68644,0 0,-1.48793"
       id="path5689"
       inkscape:connector-curvature="0" />
    <path
       sodipodi:type="arc"
       id="path5691"
       style="fill:#000000;stroke:none"
       sodipodi:cx="167.81158"
       sodipodi:cy="408.64246"
       sodipodi:rx="1.5"
       sodipodi:ry="1.5"
       d="m 169.31158,408.64246 a 1.5,1.5 0 1 1 -3,0 1.5,1.5 0 1 1 3,0 z"
       transform="matrix(2.0831159,0,0,2.0831159,-215.16042,-272.68336)" />
    <rect
       style="fill:#000000;fill-opacity:1;stroke-width:1;stroke-miterlimit:4;stroke-dasharray:none"
       id="rect5697"
       width="8.9431257"
       height="8.9431257"
       x="143.61678"
       y="628.01654" />
    <rect
       y="740.72803"
       x="239.58887"
       height="8.9431257"
       width="8.9431257"
       id="rect5699"
       style="fill:#000000;fill-opacity:1;stroke-width:1;stroke-miterlimit:4;stroke-dasharray:none" />
    <rect
       style="fill:#000000;fill-opacity:1;stroke-width:1;stroke-miterlimit:4;stroke-dasharray:none"
       id="rect5701"
       width="8.9431257"
       height="8.9431257"
       x="161.10007"
       y="519.02496" />
    <rect
       y="618.34497"
       x="266.74374"
       height="8.9431257"
       width="8.9431257"
       id="rect5703"
       style="fill:#000000;fill-opacity:1;stroke-width:1;stroke-miterlimit:4;stroke-dasharray:none" />
    <rect
       style="fill:#000000;fill-opacity:1;stroke-width:1;stroke-miterlimit:4;stroke-dasharray:none"
       id="rect5705"
       width="8.9431257"
       height="8.9431257"
       x="343.74466"
       y="636.2002" />
    <rect
       y="614.62512"
       x="401.40231"
       height="8.9431257"
       width="8.9431257"
       id="rect5707"
       style="fill:#000000;fill-opacity:1;stroke-width:1;stroke-miterlimit:4;stroke-dasharray:none" />
    <path
       sodipodi:type="arc"
       id="path5709"
       style="fill:#000000;stroke:none"
       sodipodi:cx="238.75"
       sodipodi:cy="434.50504"
       sodipodi:rx="1.5"
       sodipodi:ry="1.5"
       d="m 240.25,434.50504 a 1.5,1.5 0 1 1 -3,0 1.5,1.5 0 1 1 3,0 z"
       transform="matrix(2.0831159,0,0,2.0831159,-215.16042,-272.68336)" />
    <path
       sodipodi:type="arc"
       id="path5711"
       style="fill:#000000;stroke:none"
       sodipodi:cx="178.03571"
       sodipodi:cy="517.18359"
       sodipodi:rx="1.5"
       sodipodi:ry="1.5"
       d="m 179.53571,517.18359 a 1.5,1.5 0 1 1 -3,0 1.5,1.5 0 1 1 3,0 z"
       transform="matrix(2.0831159,0,0,2.0831159,-215.68649,-271.89425)" />
    <path
       sodipodi:type="arc"
       id="path5713"
       style="fill:#000000;stroke:none"
       sodipodi:cx="266.96429"
       sodipodi:cy="419.50504"
       sodipodi:rx="1.5"
       sodipodi:ry="1.5"
       d="m 268.46429,419.50504 a 1.5,1.5 0 1 1 -3,0 1.5,1.5 0 1 1 3,0 z"
       transform="matrix(2.0831159,0,0,2.0831159,-215.16042,-272.68336)" />
    <path
       sodipodi:type="arc"
       id="path5717"
       style="fill:#000000;stroke:none"
       sodipodi:cx="256.38934"
       sodipodi:cy="401.57141"
       sodipodi:rx="1.5"
       sodipodi:ry="1.5"
       d="m 257.88934,401.57141 a 1.5,1.5 0 1 1 -3,0 1.5,1.5 0 1 1 3,0 z"
       transform="matrix(2.0831159,0,0,2.0831159,-215.16042,-272.68336)" />
    <path
       sodipodi:type="arc"
       id="path5719"
       style="fill:#000000;stroke:none"
       sodipodi:cx="174.56699"
       sodipodi:cy="450.50067"
       sodipodi:rx="1.5"
       sodipodi:ry="1.5"
       d="m 176.06699,450.50067 a 1.5,1.5 0 1 1 -3,0 1.5,1.5 0 1 1 3,0 z"
       transform="matrix(2.0831159,0,0,2.0831159,-215.16042,-272.68336)" />
  </g>
  <g
     inkscape:groupmode="layer"
     id="layer7"
     inkscape:label="mirror"
     transform="translate(0,-308.2677)">
    <rect
       y="518.10736"
       x="-1047.6478"
       height="46.293827"
       width="92.587654"
       id="rect3865"
       style="fill:#000000;fill-opacity:1;display:inline"
       transform="scale(-1,1)" />
    <rect
       style="fill:#000000;fill-opacity:1;display:inline"
       id="rect3867"
       width="92.587654"
       height="46.293827"
       x="-1047.6478"
       y="582.55029"
       transform="scale(-1,1)" />
    <rect
       y="646.99341"
       x="-1047.6478"
       height="46.293827"
       width="92.587654"
       id="rect3869"
       style="fill:#000000;fill-opacity:1;display:inline"
       transform="scale(-1,1)" />
    <rect
       style="fill:#000000;fill-opacity:1;display:inline"
       id="rect3871"
       width="92.587654"
       height="46.293827"
       x="-1047.6478"
       y="711.43677"
       transform="scale(-1,1)" />
    <rect
       y="775.8797"
       x="-1047.6478"
       height="46.293827"
       width="92.587654"
       id="rect3873"
       style="fill:#000000;fill-opacity:1;display:inline"
       transform="scale(-1,1)" />
    <rect
       style="fill:#000000;fill-opacity:1;display:inline"
       id="rect3875"
       width="86.800919"
       height="9.9952621"
       x="-1008.2386"
       y="536.03864"
       transform="scale(-1,1)" />
    <rect
       y="599.95563"
       x="-1008.2386"
       height="9.9952621"
       width="86.800919"
       id="rect3877"
       style="fill:#000000;fill-opacity:1;display:inline"
       transform="scale(-1,1)" />
    <rect
       style="fill:#000000;fill-opacity:1;display:inline"
       id="rect3879"
       width="86.800919"
       height="9.9952621"
       x="-1008.2386"
       y="663.87268"
       transform="scale(-1,1)" />
    <rect
       y="727.78967"
       x="-1008.2386"
       height="9.9952621"
       width="86.800919"
       id="rect3881"
       style="fill:#000000;fill-opacity:1;display:inline"
       transform="scale(-1,1)" />
    <rect
       style="fill:#000000;fill-opacity:1;display:inline"
       id="rect3883"
       width="86.800919"
       height="9.9952621"
       x="-1008.2386"
       y="791.70691"
       transform="scale(-1,1)" />
    <path
       sodipodi:nodetypes="cccccccccccccccccccccccccccc"
       inkscape:connector-curvature="0"
       id="path3885"
       d="m 726.09769,554.4653 4.19452,-20.40449 c 7.10407,1.89174 14.68568,2.45924 22.14677,1.60512 8.47722,-0.8874 17.31034,-3.95765 26.59991,-7.1038 l 0,0 c 9.25456,-3.23097 19.13432,-6.58512 29.73344,-7.95475 15.14984,-1.76875 29.71473,0.81727 43.46094,4.1274 6.93903,1.636 13.963,3.49283 20.77288,6.12074 4.44928,1.72186 8.56954,3.69263 12.74819,5.1344 8.14688,2.84912 17.0823,3.85254 26.03055,4.74203 l 0,0 c 4.32509,0.42164 6.93953,0.4065 11.21625,0.11478 0,0 2.04591,0.27899 2.04593,0.27899 2.88543,-0.19519 5.45445,-0.57484 8.41141,-0.5579 1.22429,0.008 2.44346,0.1079 3.64375,0.29874 -1.21315,-0.0733 -2.4274,-0.0544 -3.62879,0.0554 -2.90201,0.2641 -5.71851,1.05768 -8.65733,1.54559 l 0,2e-5 c -4.35627,0.72088 -8.79739,0.74931 -13.15387,0.74107 -9.01533,-3e-5 -18.20906,-0.14499 -27.33296,-2.31599 -4.66964,-1.1302 -9.07545,-2.72168 -13.3663,-3.91828 -6.56312,-1.83754 -13.36964,-2.92478 -20.29034,-3.87451 -13.71673,-1.81348 -27.40341,-2.97794 -39.79803,-0.081 -8.70636,1.90043 -17.17837,5.86118 -26.10892,9.88951 l 0,0 c -8.89753,4.11395 -18.4087,8.37742 -29.23228,10.80025 -9.58592,2.06958 -19.59812,2.34776 -29.43572,0.75684 z"
       style="fill:#000000;fill-rule:evenodd;stroke:none;display:inline" />
    <path
       sodipodi:nodetypes="cccccccccccccccccccccccccc"
       inkscape:connector-curvature="0"
       id="path3887"
       d="m 935.3927,734.35724 c -2.2375,-0.0233 -3.54505,-0.0469 -5.78255,-0.0702 -12.02103,-0.1229 -24.90708,1.32882 -36.21347,4.37069 -17.85272,4.71012 -33.29085,14.60354 -48.48552,25.824 -6.90417,5.14425 -13.79747,10.32915 -20.74706,15.47948 l 0,0 c -9.16179,6.80036 -18.5719,13.61756 -28.86316,19.54905 -8.56862,4.91565 -17.48882,9.06434 -26.48221,12.74458 -14.95348,6.13086 -30.39799,11.13984 -46.13812,15.06033 -11.77881,2.95356 -23.99827,5.30592 -36.6923,6.26072 -17.39312,1.12749 -35.1206,-0.47497 -52.38836,-4.81379 -9.20933,-3.95563 -18.4527,-7.92438 -27.73015,-11.90628 l 13.65183,-28.10669 c 8.08186,4.44977 16.19776,8.91267 24.34775,13.38871 13.09263,4.52673 27.13233,6.95819 41.35185,7.08972 10.8228,0.21389 21.96268,-0.93401 33.2409,-2.66693 l 0,0 c 15.06514,-2.34089 30.00039,-5.72439 44.6262,-10.23467 8.79116,-2.71773 17.3861,-5.78866 25.59568,-9.5745 9.88249,-4.53098 19.48118,-10.26424 29.1665,-16.16152 l 2e-5,0 c 7.33992,-4.47678 14.66872,-9.01866 22.0312,-13.53536 16.13469,-9.99485 33.39214,-20.11737 52.50841,-23.46398 12.17036,-2.07445 24.7258,-1.67506 36.69557,-0.46508 2.22633,0.2246 4.08066,1.00719 6.30699,1.23179 z"
       style="fill:#000000;fill-rule:evenodd;stroke:none;display:inline" />
    <path
       sodipodi:nodetypes="ccccccccccccccccccccccccccccccccccccccccccccc"
       inkscape:connector-curvature="0"
       id="path3889"
       d="m 669.91632,703.4569 -2.65718,-31.13354 c 9.22173,-0.52203 18.4456,-0.96667 27.67034,-1.33395 21.44025,-0.95334 41.89405,-1.22102 60.54706,-6.10174 l 0,0 c 9.40004,-2.39825 18.49938,-5.85699 26.88165,-10.50559 l 2e-5,0 c 8.81585,-5.205 16.8377,-11.01124 20.36708,-18.54729 2.7383,-5.41227 3.844,-11.98287 2.26319,-17.4852 -1.37803,-5.75404 -5.91555,-11.24203 -11.54686,-14.67128 0,0 0,0 -2e-5,0 -6.8807,-4.22443 -16.20694,-5.29188 -24.65637,-3.26234 -7.03178,1.76115 -13.72131,5.66797 -18.24224,11.21899 -4.60977,5.5042 -7.28499,12.97446 -7.58369,20.50986 -0.41691,8.7765 2.63735,17.96029 7.5494,26.0662 8.55051,14.09767 23.24339,24.58872 39.46511,30.61734 2e-5,0 2e-5,2e-5 2e-5,2e-5 8.35517,3.07493 17.17873,5.02323 26.14042,5.83973 l 2e-5,0 c 16.14253,1.48328 32.72319,-0.77996 48.46063,-5.78875 2e-5,-2e-5 2e-5,-2e-5 4e-5,-2e-5 9.30922,-2.97026 18.07891,-7.81521 26.64331,-12.623 8.12888,-4.25987 17.93837,-6.29265 26.8961,-7.82204 7.54705,-1.28749 14.44598,-1.56658 22.00925,-0.84285 -7.59244,-0.28611 -14.14121,1.3589 -21.48786,3.05362 -8.71409,2.00909 -18.11951,4.46508 -25.71053,9.01987 -8.43208,5.39607 -17.43339,9.94651 -26.82713,13.54876 l 0,0 c -15.91632,6.11482 -33.09295,9.49732 -50.43974,8.94108 -2e-5,0 -2e-5,0 -4e-5,0 -9.62787,-0.31561 -19.26014,-1.85893 -28.5705,-4.68159 -18.20295,-5.46397 -35.37018,-16.3174 -46.80974,-32.51059 -6.61347,-9.35867 -11.02472,-20.70492 -11.38895,-32.85319 -0.25323,-10.52313 2.86641,-21.17017 9.25043,-29.9925 6.43987,-8.73248 15.65995,-15.08207 25.94731,-18.24072 12.40175,-3.89357 26.31313,-3.08688 38.47159,3.05046 l 2e-5,2e-5 c 10.05087,5.10555 18.20572,14.01237 22.12133,25.30973 3.54209,10.99916 2.67518,22.79643 -1.94533,33.01716 -6.33203,13.41347 -16.95486,23.20516 -28.03104,29.85078 l -2e-5,2e-5 c -10.02499,6.31746 -20.84836,11.21406 -32.03765,14.74558 -2e-5,0 -2e-5,0 -4e-5,0 -22.22987,6.89364 -44.70396,8.77786 -65.70885,10.73238 -9.02352,0.88289 -18.03745,1.84117 -27.04054,2.87458 z"
       style="fill:#000000;fill-rule:evenodd;stroke:none;display:inline" />
    <path
       sodipodi:nodetypes="csssssssssc"
       inkscape:connector-curvature="0"
       inkscape:original-d="m 707.93342,689.33808 c 0,0 15.62733,2.3433 18.97602,2.3433 3.34869,0 26.78966,3.51496 41.85888,8.78735 15.06915,5.27243 15.62728,4.68664 23.44093,9.37321 7.81364,4.68662 5.58118,0.58583 22.32473,12.88815 16.74356,12.30232 21.20851,13.47399 30.13839,21.0897 8.92986,7.61575 7.81367,5.27247 15.06916,14.05982 7.25556,8.78738 9.03268,11.1904 17.96258,18.22031 8.92988,7.02991 4.46493,6.4441 15.06918,13.47399 10.60427,7.02989 19.54075,6.6591 28.47065,8.41658 8.92986,1.75748 12.43885,-1.07612 12.43885,-1.07612"
       inkscape:path-effect="#path-effect3999;#path-effect4001"
       id="path3891"
       d="m 708.4615,684.36605 -1.05616,9.94406 c 6.29452,0.54475 12.58186,1.19707 18.8583,1.9567 14.05304,1.71056 27.96909,3.92474 41.37056,7.83255 7.91049,2.30182 15.65413,5.18437 23.09704,8.71044 0,0 0,0 1e-5,0 7.59795,3.59294 14.94696,7.90178 22.30822,12.30867 10.50331,6.30014 20.87555,12.70069 30.27644,20.31275 5.26772,4.25815 10.26046,8.92253 15.22203,13.6605 6.15687,5.88136 12.23734,11.85331 18.29533,17.854 0,10e-6 10e-6,10e-6 10e-6,10e-6 4.79107,4.7565 9.69032,9.62001 15.48547,13.31396 8.6218,5.47386 18.84853,8.00856 28.92138,7.97234 4.18624,-0.0145 8.3625,-0.45784 12.44266,-1.31766 -4.11032,0.70163 -8.28432,0.98065 -12.43504,0.83458 -9.98456,-0.35287 -19.92106,-3.25228 -28.01992,-8.86082 -5.46098,-3.76657 -10.0353,-8.70358 -14.65289,-13.63402 0,0 0,-10e-6 -10e-6,-10e-6 -5.8264,-6.23521 -11.68278,-12.44915 -17.62981,-18.5866 -4.79096,-4.94601 -9.66953,-9.86647 -14.91629,-14.45914 -9.37619,-8.194 -19.6973,-15.14735 -30.00034,-21.86665 -7.21289,-4.71278 -14.54969,-9.39651 -22.34122,-13.46762 0,-10e-6 -10e-6,-10e-6 -10e-6,-10e-6 -7.63852,-3.98456 -15.61354,-7.31426 -23.78482,-10.03598 -13.84636,-4.60372 -28.13292,-7.47162 -42.3472,-9.74215 -6.34637,-1.01813 -12.71217,-1.92832 -19.09374,-2.7299 z"
       style="fill:#000000;fill-rule:evenodd;stroke:none;display:inline" />
    <path
       sodipodi:nodetypes="ccsssssssscsssssssscc"
       inkscape:connector-curvature="0"
       inkscape:original-d="m 623.4833,572.54375 23.80703,-20.08717 c 0,0 0.74397,-2.23192 10.0436,-5.5798 9.29961,-3.34786 17.48328,-4.4638 29.01482,-4.4638 11.53153,0 -1.48794,-1.11597 15.99536,0 17.4833,1.11594 20.08719,1.11594 27.15489,2.23191 7.06772,1.11595 10.41558,2.23189 15.99535,3.71984 5.57979,1.48795 5.20779,1.48795 11.15957,3.34786 5.95175,1.85993 7.4397,1.85993 11.53152,3.71986 4.09185,1.85991 3.71986,2.23192 9.29964,3.71984 5.57977,1.48795 11.9035,5.57978 11.9035,5.57978 0,0 -0.37198,0 7.81169,4.46382 8.18366,4.46383 -0.74397,0.37198 15.99535,7.06772 16.73933,6.69572 20.83116,9.6716 27.15491,11.90351 6.32374,2.23191 0.74397,2.97588 18.59925,6.69574 17.85528,3.71984 22.69109,5.95175 26.78291,6.69572 4.09185,0.74398 10.78756,1.85993 18.59925,3.71986 7.81168,1.85993 15.06538,0.92996 20.64518,0.92996 5.57977,0 5.39377,0.74397 12.83347,0.74397 7.4397,0 13.01947,0.92996 13.01947,0.92996 l 2.97588,0"
       inkscape:path-effect="#path-effect4003;#path-effect4005"
       id="path3893"
       d="m 613.81024,561.07938 19.34612,22.92874 c 7.51694,-6.9306 15.04564,-13.87046 22.58611,-20.81959 1.94027,-1.6223 4.13633,-3.0066 6.48881,-4.07973 0,-10e-6 0,-10e-6 10e-6,-10e-6 6.2564,-3.24018 14.85785,-4.00165 24.35824,-4.78427 1e-5,0 1e-5,0 1e-5,0 5.16718,-0.3324 10.34382,-0.56133 15.52584,-0.68372 8.83261,-0.18878 17.41641,-0.1262 25.67788,0.92279 4.98012,0.61257 10.03533,1.61084 15.15322,2.80973 0,0 1e-5,0 1e-5,0 3.62902,0.85253 7.32614,1.82819 11.10893,2.81372 3.93318,1.02851 7.71804,1.98865 11.30816,3.09975 2.96976,0.91323 5.95642,1.97881 8.9702,3.12898 0,1e-5 10e-6,1e-5 10e-6,1e-5 3.83952,1.44594 7.64848,3.01344 11.41982,4.70023 0,1e-5 10e-6,1e-5 10e-6,1e-5 2.68727,1.57004 5.45408,3.00305 8.28715,4.29354 5.70816,2.60825 11.355,4.57627 16.7194,6.58077 9.08986,3.40563 18.23233,7.31562 27.70453,10.75952 0,10e-6 10e-6,10e-6 2e-5,10e-6 6.31778,2.29687 12.7496,4.36124 19.29565,6.04736 9.14237,2.34671 18.28868,3.90616 27.30342,5.61381 6.19456,1.18073 12.52949,2.46592 19.01829,2.97115 7.07032,0.5349 13.99806,0.11521 20.85155,0.0602 10e-6,0 10e-6,0 2e-5,0 4.26161,-0.0334 8.54213,0.077 12.82907,0.19351 4.3609,0.11871 8.71515,0.2432 13.06272,0.37349 0.99504,-0.0423 1.98854,-0.0847 2.9805,-0.12705 -0.99196,-0.0424 -1.98238,-0.0847 -2.97126,-0.12705 -4.33122,-0.50168 -8.65663,-0.99715 -12.97622,-1.48643 -4.26257,-0.48229 -8.53431,-0.9592 -12.83784,-1.29443 -10e-6,0 -10e-6,0 -10e-6,0 -6.92071,-0.54043 -13.82258,-0.70907 -20.43881,-1.79972 -6.07525,-0.98701 -12.05657,-2.76066 -18.18021,-4.46857 -8.90746,-2.49514 -17.78399,-4.79735 -26.2624,-7.77763 -6.07356,-2.12895 -12.02885,-4.62398 -17.90283,-7.34411 -8.80747,-4.07833 -17.50489,-8.7172 -26.60529,-13.0475 -5.36642,-2.55908 -10.5851,-4.87764 -15.2713,-7.55467 -2.51564,-1.4292 -4.96488,-2.97679 -7.33623,-4.6341 -4.05426,-2.26209 -8.1854,-4.41652 -12.38717,-6.45932 -1e-5,0 -1e-5,-10e-6 -2e-5,-10e-6 -3.11295,-1.50792 -6.31364,-2.96581 -9.62905,-4.31068 -4.01269,-1.62038 -7.9644,-3.00019 -11.75488,-4.33997 -3.64339,-1.29155 -7.36493,-2.6206 -11.21018,-3.88199 0,0 -10e-6,0 -2e-5,-10e-6 -5.4219,-1.78205 -11.02284,-3.38612 -16.83748,-4.62995 -9.65714,-2.0325 -19.28664,-2.98194 -28.6319,-3.54103 -5.48006,-0.33959 -10.96992,-0.56685 -16.46485,-0.68372 -10e-6,0 -2e-5,0 -2e-5,0 -10.17671,-0.38487 -21.65666,0.0683 -33.67136,4.14332 -10e-6,0 -2e-5,0 -3e-5,0 -4.77731,1.78143 -9.34831,4.15663 -13.59839,7.07987 -8.33089,6.44232 -16.67354,12.8939 -25.02795,19.35475 z"
       style="fill:#000000;fill-rule:evenodd;stroke:none;display:inline" />
    <path
       inkscape:connector-curvature="0"
       id="path3895"
       d="m 800.04868,534.58375 36.74639,21.21554 10.64783,6.14752 64.20128,0"
       style="fill:none;stroke:#000000;stroke-width:2.08311582;stroke-linecap:butt;stroke-linejoin:miter;stroke-miterlimit:4;stroke-opacity:1;stroke-dasharray:none" />
    <path
       inkscape:connector-curvature="0"
       id="path3897"
       d="m 652.57213,567.03145 30.04614,8.05083 10.57983,18.32481 0.93328,34.12196"
       style="fill:none;stroke:#000000;stroke-width:2.08311582px;stroke-linecap:butt;stroke-linejoin:miter;stroke-opacity:1" />
    <path
       inkscape:connector-curvature="0"
       id="path3899"
       d="m 683.08399,574.6594 43.13742,0"
       style="fill:none;stroke:#000000;stroke-width:2.08311582px;stroke-linecap:butt;stroke-linejoin:miter;stroke-opacity:1" />
    <path
       inkscape:connector-curvature="0"
       id="path3901"
       d="m 707.01999,574.13333 9.07464,-9.07463 18.54383,0"
       style="fill:none;stroke:#000000;stroke-width:2.08311582px;stroke-linecap:butt;stroke-linejoin:miter;stroke-opacity:1" />
    <path
       inkscape:connector-curvature="0"
       id="path3903"
       d="m 693.60531,595.96508 11.04739,11.04741 0,12.36254"
       style="fill:none;stroke:#000000;stroke-width:2.08311582px;stroke-linecap:butt;stroke-linejoin:miter;stroke-opacity:1" />
    <path
       inkscape:connector-curvature="0"
       id="path3905"
       d="m 693.34227,612.01011 -14.50298,8.37329 -29.9496,0"
       style="fill:none;stroke:#000000;stroke-width:2.08311582px;stroke-linecap:butt;stroke-linejoin:miter;stroke-opacity:1" />
    <path
       inkscape:connector-curvature="0"
       id="path3907"
       d="m 689.39677,673.03378 0,-15.78198 14.46682,-14.46682"
       style="fill:none;stroke:#000000;stroke-width:2.08311582px;stroke-linecap:butt;stroke-linejoin:miter;stroke-opacity:1" />
    <path
       inkscape:connector-curvature="0"
       id="path3909"
       d="m 902.97966,633.84185 -52.60663,0 -34.04322,9.12186"
       style="fill:none;stroke:#000000;stroke-width:2.08311582px;stroke-linecap:butt;stroke-linejoin:miter;stroke-opacity:1" />
    <path
       inkscape:connector-curvature="0"
       id="path3911"
       d="m 877.46545,623.0575 -32.09004,0 -20.85195,5.58725"
       style="fill:none;stroke:#000000;stroke-width:2.08311582px;stroke-linecap:butt;stroke-linejoin:miter;stroke-opacity:1" />
    <path
       inkscape:connector-curvature="0"
       id="path3913"
       d="m 706.75696,757.46741 -14.46683,-14.46683 0.78911,-46.03078"
       style="fill:none;stroke:#000000;stroke-width:2.08311582px;stroke-linecap:butt;stroke-linejoin:miter;stroke-opacity:1" />
    <path
       inkscape:connector-curvature="0"
       id="path3915"
       d="m 726.74748,747.47216 15.42014,-8.90282 0,-41.07347"
       style="fill:none;stroke:#000000;stroke-width:2.08311582px;stroke-linecap:butt;stroke-linejoin:miter;stroke-opacity:1" />
    <path
       inkscape:connector-curvature="0"
       id="path3917"
       d="m 727.27355,767.98875 0,25.25117 -17.62323,17.6232"
       style="fill:none;stroke:#000000;stroke-width:2.08311582px;stroke-linecap:butt;stroke-linejoin:miter;stroke-opacity:1" />
    <path
       inkscape:connector-curvature="0"
       id="path3919"
       d="m 752.52472,703.28258 0,42.08532 14.20379,14.20379 0,38.40282"
       style="fill:none;stroke:#000000;stroke-width:2.08311582px;stroke-linecap:butt;stroke-linejoin:miter;stroke-opacity:1" />
    <path
       inkscape:connector-curvature="0"
       id="path3921"
       d="m 776.72376,793.76597 0,-38.92889 -13.67772,-13.67772 0,-36.82464"
       style="fill:none;stroke:#000000;stroke-width:2.08311582px;stroke-linecap:butt;stroke-linejoin:miter;stroke-opacity:1" />
    <path
       inkscape:connector-curvature="0"
       id="path3923"
       d="m 776.72376,767.46268 22.62085,0 10.86613,-18.82071"
       style="fill:none;stroke:#000000;stroke-width:2.08311582px;stroke-linecap:butt;stroke-linejoin:miter;stroke-opacity:1" />
    <path
       inkscape:connector-curvature="0"
       id="path3925"
       d="m 811.44413,786.92712 46.29384,0 19.72748,19.72749 20.7796,0"
       style="fill:none;stroke:#000000;stroke-width:2.08311582px;stroke-linecap:butt;stroke-linejoin:miter;stroke-opacity:1" />
    <path
       inkscape:connector-curvature="0"
       id="path3927"
       d="m 786.19296,802.18303 35.24644,-1.57819 13.15165,13.15165 16.30805,0 0,-2.10426"
       style="fill:none;stroke:#000000;stroke-width:2.08311582px;stroke-linecap:butt;stroke-linejoin:miter;stroke-opacity:1" />
    <path
       inkscape:connector-curvature="0"
       id="path3929"
       d="m 814.07446,696.44373 11.84779,-20.52096 38.65457,0 -1.05212,-2.09988"
       style="fill:none;stroke:#000000;stroke-width:2.08311582px;stroke-linecap:butt;stroke-linejoin:miter;stroke-opacity:1" />
    <path
       inkscape:connector-curvature="0"
       id="path3931"
       d="m 840.90385,674.87503 5.45068,-9.44087 16.53459,-9.54625 31.14741,0"
       style="fill:none;stroke:#000000;stroke-width:2.08311582px;stroke-linecap:butt;stroke-linejoin:miter;stroke-opacity:1" />
    <path
       inkscape:connector-curvature="0"
       id="path3933"
       d="m 877.54517,656.01637 10.63435,10.88793 17.35075,0"
       style="fill:none;stroke:#000000;stroke-width:2.24257612px;stroke-linecap:butt;stroke-linejoin:miter;stroke-opacity:1" />
    <path
       inkscape:connector-curvature="0"
       id="path3935"
       d="m 745.36689,598.56516 -26.03895,0 -6.63254,3.82931"
       style="fill:none;stroke:#000000;stroke-width:2.08311582px;stroke-linecap:butt;stroke-linejoin:miter;stroke-opacity:1" />
    <path
       inkscape:connector-curvature="0"
       id="path3937"
       d="m 769.04166,599.39626 -13.21332,13.19591 0,19.40577 0.77725,-0.77623"
       style="fill:none;stroke:#000000;stroke-width:2.17487669px;stroke-linecap:butt;stroke-linejoin:miter;stroke-opacity:1" />
    <path
       inkscape:connector-curvature="0"
       id="path3939"
       d="m 790.00508,654.36292 0,-19.34323 -5.35371,-9.27291"
       style="fill:none;stroke:#000000;stroke-width:2.08311582px;stroke-linecap:butt;stroke-linejoin:miter;stroke-opacity:1" />
    <path
       inkscape:connector-curvature="0"
       id="path3941"
       d="m 775.86966,658.08276 0,-16.36733 -4.52344,-7.83481"
       style="fill:none;stroke:#000000;stroke-width:2.08311582px;stroke-linecap:butt;stroke-linejoin:miter;stroke-opacity:1" />
    <path
       d="m 172.97339,400.18243 a 1.5,1.5 0 1 1 -3,0 1.5,1.5 0 1 1 3,0 z"
       sodipodi:ry="1.5"
       sodipodi:rx="1.5"
       sodipodi:cy="400.18243"
       sodipodi:cx="171.47339"
       style="fill:#000000;stroke:none"
       id="path3943"
       sodipodi:type="arc"
       transform="matrix(-2.0831159,0,0,2.0831159,1269.1218,-271.59262)" />
    <path
       d="m 189.51463,429.35059 a 1.5,1.5 0 1 1 -3,0 1.5,1.5 0 1 1 3,0 z"
       sodipodi:ry="1.5"
       sodipodi:rx="1.5"
       sodipodi:cy="429.35059"
       sodipodi:cx="188.01463"
       style="fill:#000000;stroke:none"
       id="path3945"
       sodipodi:type="arc"
       transform="matrix(-2.0831159,0,0,2.0831159,1269.1218,-271.59262)" />
    <path
       d="m 181.30714,445.2605 a 1.5,1.5 0 1 1 -3,0 1.5,1.5 0 1 1 3,0 z"
       sodipodi:ry="1.5"
       sodipodi:rx="1.5"
       sodipodi:cy="445.2605"
       sodipodi:cx="179.80714"
       style="fill:#000000;stroke:none"
       id="path3947"
       sodipodi:type="arc"
       transform="matrix(-2.0831159,0,0,2.0831159,1269.1218,-271.59262)" />
    <path
       d="m 195.4493,454.73068 a 1.5,1.5 0 1 1 -3,0 1.5,1.5 0 1 1 3,0 z"
       sodipodi:ry="1.5"
       sodipodi:rx="1.5"
       sodipodi:cy="454.73068"
       sodipodi:cx="193.9493"
       style="fill:#000000;stroke:none"
       id="path3949"
       sodipodi:type="arc"
       transform="matrix(-2.0831159,0,0,2.0831159,1269.1218,-271.59262)" />
    <path
       d="m 262.11935,489.3284 a 1.5,1.5 0 1 1 -3,0 1.5,1.5 0 1 1 3,0 z"
       sodipodi:ry="1.5"
       sodipodi:rx="1.5"
       sodipodi:cy="489.3284"
       sodipodi:cx="260.61935"
       style="fill:#000000;stroke:none"
       id="path3951"
       sodipodi:type="arc"
       transform="matrix(-2.0831159,0,0,2.0831159,1269.1218,-271.59262)" />
    <path
       d="m 262.11935,489.3284 a 1.5,1.5 0 1 1 -3,0 1.5,1.5 0 1 1 3,0 z"
       sodipodi:ry="1.5"
       sodipodi:rx="1.5"
       sodipodi:cy="489.3284"
       sodipodi:cx="260.61935"
       style="fill:#000000;stroke:none"
       id="path3953"
       sodipodi:type="arc"
       transform="matrix(-2.0831159,0,0,2.0831159,1269.1218,-271.59262)" />
    <path
       d="m 262.11935,489.3284 a 1.5,1.5 0 1 1 -3,0 1.5,1.5 0 1 1 3,0 z"
       sodipodi:ry="1.5"
       sodipodi:rx="1.5"
       sodipodi:cy="489.3284"
       sodipodi:cx="260.61935"
       style="fill:#000000;stroke:none"
       id="path3955"
       sodipodi:type="arc"
       transform="matrix(-2.0831159,0,0,2.0831159,1269.1218,-271.59262)" />
    <path
       d="m 261.61429,498.54605 a 1.5,1.5 0 1 1 -3,0 1.5,1.5 0 1 1 3,0 z"
       sodipodi:ry="1.5"
       sodipodi:rx="1.5"
       sodipodi:cy="498.54605"
       sodipodi:cx="260.11429"
       style="fill:#000000;stroke:none"
       id="path3957"
       sodipodi:type="arc"
       transform="matrix(-2.0831159,0,0,2.0831159,1269.1218,-271.59262)" />
    <path
       transform="matrix(-2.0831159,0,0,2.0831159,1268.8587,-271.46111)"
       d="m 270.95819,493.74783 a 1.5,1.5 0 1 1 -3,0 1.5,1.5 0 1 1 3,0 z"
       sodipodi:ry="1.5"
       sodipodi:rx="1.5"
       sodipodi:cy="493.74783"
       sodipodi:cx="269.45819"
       style="fill:#000000;stroke:none"
       id="path3959"
       sodipodi:type="arc" />
    <path
       d="m 277.57144,430.57648 a 1.5,1.5 0 1 1 -3,0 1.5,1.5 0 1 1 3,0 z"
       sodipodi:ry="1.5"
       sodipodi:rx="1.5"
       sodipodi:cy="430.57648"
       sodipodi:cx="276.07144"
       style="fill:#000000;stroke:none"
       id="path3961"
       sodipodi:type="arc"
       transform="matrix(-2.0831159,0,0,2.0831159,1269.1218,-271.59262)" />
    <path
       d="m 272.57144,427.71933 a 1.5,1.5 0 1 1 -3,0 1.5,1.5 0 1 1 3,0 z"
       sodipodi:ry="1.5"
       sodipodi:rx="1.5"
       sodipodi:cy="427.71933"
       sodipodi:cx="271.07144"
       style="fill:#000000;stroke:none"
       id="path3963"
       sodipodi:type="arc"
       transform="matrix(-2.0831159,0,0,2.0831159,1269.1218,-271.59262)" />
    <path
       d="m 261.94644,406.20148 a 1.5,1.5 0 1 1 -3,0 1.5,1.5 0 1 1 3,0 z"
       sodipodi:ry="1.5"
       sodipodi:rx="1.5"
       sodipodi:cy="406.20148"
       sodipodi:cx="260.44644"
       style="fill:#000000;stroke:none"
       id="path3965"
       sodipodi:type="arc"
       transform="matrix(-2.0831159,0,0,2.0831159,1269.1218,-271.59262)" />
    <path
       d="m 247.83929,434.05862 a 1.5,1.5 0 1 1 -3,0 1.5,1.5 0 1 1 3,0 z"
       sodipodi:ry="1.5"
       sodipodi:rx="1.5"
       sodipodi:cy="434.05862"
       sodipodi:cx="246.33929"
       style="fill:#000000;stroke:none"
       id="path3967"
       sodipodi:type="arc"
       transform="matrix(-2.0831159,0,0,2.0831159,1269.1218,-271.59262)" />
    <path
       d="m 202.03571,520.8443 a 1.5,1.5 0 1 1 -3,0 1.5,1.5 0 1 1 3,0 z"
       sodipodi:ry="1.5"
       sodipodi:rx="1.5"
       sodipodi:cy="520.8443"
       sodipodi:cx="200.53571"
       style="fill:#000000;stroke:none"
       id="path3969"
       sodipodi:type="arc"
       transform="matrix(-2.0831159,0,0,2.0831159,1269.1218,-271.59262)" />
    <path
       inkscape:connector-curvature="0"
       id="path3971"
       d="m 862.18148,561.64103 18.73232,17.98669 37.83186,0"
       style="fill:none;stroke:#000000;stroke-width:2.01552844px;stroke-linecap:butt;stroke-linejoin:miter;stroke-opacity:1" />
    <path
       inkscape:connector-curvature="0"
       id="path3973"
       d="m 848.03473,524.91214 38.68644,0 0,-1.48793"
       style="fill:none;stroke:#000000;stroke-width:2.08311582px;stroke-linecap:butt;stroke-linejoin:miter;stroke-opacity:1" />
    <path
       d="m 169.31158,408.64246 a 1.5,1.5 0 1 1 -3,0 1.5,1.5 0 1 1 3,0 z"
       sodipodi:ry="1.5"
       sodipodi:rx="1.5"
       sodipodi:cy="408.64246"
       sodipodi:cx="167.81158"
       style="fill:#000000;stroke:none"
       id="path3975"
       sodipodi:type="arc"
       transform="matrix(-2.0831159,0,0,2.0831159,1269.1218,-271.59262)" />
    <rect
       y="629.1073"
       x="-910.3446"
       height="8.9431257"
       width="8.9431257"
       id="rect3977"
       style="fill:#000000;fill-opacity:1;stroke-width:1;stroke-miterlimit:4;stroke-dasharray:none"
       transform="scale(-1,1)" />
    <rect
       style="fill:#000000;fill-opacity:1;stroke-width:1;stroke-miterlimit:4;stroke-dasharray:none"
       id="rect3979"
       width="8.9431257"
       height="8.9431257"
       x="-814.37238"
       y="741.81879"
       transform="scale(-1,1)" />
    <rect
       y="520.11572"
       x="-892.86139"
       height="8.9431257"
       width="8.9431257"
       id="rect3981"
       style="fill:#000000;fill-opacity:1;stroke-width:1;stroke-miterlimit:4;stroke-dasharray:none"
       transform="scale(-1,1)" />
    <rect
       style="fill:#000000;fill-opacity:1;stroke-width:1;stroke-miterlimit:4;stroke-dasharray:none"
       id="rect3983"
       width="8.9431257"
       height="8.9431257"
       x="-787.21753"
       y="619.43573"
       transform="scale(-1,1)" />
    <rect
       y="637.29095"
       x="-710.21661"
       height="8.9431257"
       width="8.9431257"
       id="rect3985"
       style="fill:#000000;fill-opacity:1;stroke-width:1;stroke-miterlimit:4;stroke-dasharray:none"
       transform="scale(-1,1)" />
    <rect
       style="fill:#000000;fill-opacity:1;stroke-width:1;stroke-miterlimit:4;stroke-dasharray:none"
       id="rect3987"
       width="8.9431257"
       height="8.9431257"
       x="-652.55902"
       y="615.71588"
       transform="scale(-1,1)" />
    <path
       d="m 240.25,434.50504 a 1.5,1.5 0 1 1 -3,0 1.5,1.5 0 1 1 3,0 z"
       sodipodi:ry="1.5"
       sodipodi:rx="1.5"
       sodipodi:cy="434.50504"
       sodipodi:cx="238.75"
       style="fill:#000000;stroke:none"
       id="path3989"
       sodipodi:type="arc"
       transform="matrix(-2.0831159,0,0,2.0831159,1269.1218,-271.59262)" />
    <path
       transform="matrix(-2.0831159,0,0,2.0831159,1269.6478,-270.80351)"
       d="m 179.53571,517.18359 a 1.5,1.5 0 1 1 -3,0 1.5,1.5 0 1 1 3,0 z"
       sodipodi:ry="1.5"
       sodipodi:rx="1.5"
       sodipodi:cy="517.18359"
       sodipodi:cx="178.03571"
       style="fill:#000000;stroke:none"
       id="path3991"
       sodipodi:type="arc" />
    <path
       d="m 268.46429,419.50504 a 1.5,1.5 0 1 1 -3,0 1.5,1.5 0 1 1 3,0 z"
       sodipodi:ry="1.5"
       sodipodi:rx="1.5"
       sodipodi:cy="419.50504"
       sodipodi:cx="266.96429"
       style="fill:#000000;stroke:none"
       id="path3993"
       sodipodi:type="arc"
       transform="matrix(-2.0831159,0,0,2.0831159,1269.1218,-271.59262)" />
    <path
       d="m 257.88934,401.57141 a 1.5,1.5 0 1 1 -3,0 1.5,1.5 0 1 1 3,0 z"
       sodipodi:ry="1.5"
       sodipodi:rx="1.5"
       sodipodi:cy="401.57141"
       sodipodi:cx="256.38934"
       style="fill:#000000;stroke:none"
       id="path3995"
       sodipodi:type="arc"
       transform="matrix(-2.0831159,0,0,2.0831159,1269.1218,-271.59262)" />
    <path
       d="m 176.06699,450.50067 a 1.5,1.5 0 1 1 -3,0 1.5,1.5 0 1 1 3,0 z"
       sodipodi:ry="1.5"
       sodipodi:rx="1.5"
       sodipodi:cy="450.50067"
       sodipodi:cx="174.56699"
       style="fill:#000000;stroke:none"
       id="path3997"
       sodipodi:type="arc"
       transform="matrix(-2.0831159,0,0,2.0831159,1269.1218,-271.59262)" />
  </g>
</svg>
